# xmcd
#
# Track frame offsets: 
#        150
#        14905
#        32115
#        50715
#        66005
#        82691
#        101701
#        118823
#        139949
#        164735
#        184164
#        199579
#        209989
#        230281
#        251715
#        271558
#        290299
#        309550
#
# Disc length: 4313 seconds
#
# Revision: 0
# Processed by: cddbd v1.5.2PL0 Copyright (c) Steve Scherf et al.
# Submitted via: ExactAudioCopy v0.95a5
#
DISCID=1110d712
DTITLE=Various Artist - Зодиак 4
DYEAR=1900
DGENRE=Black Metal
TTITLE0=Газманов Олег - Эскадрон
TTITLE1=Успенская О. - Кабриолет
TTITLE2=Метов Кай - Position № 2
TTITLE3=Буланова Татьяна - Ясный мой свет
TTITLE4=Киркоров Ф./Милая
TTITLE5=Варум А./Ля-ля-фа
TTITLE6=Иванушки International/Кукла
TTITLE7=Лада Дэнс - Девочка-ночь
TTITLE8=Нэнси/Дым сигарет с ментолом
TTITLE9=Шан-Хай/Солнечный зайчик
TTITLE10=Насыров М./Мальчик хочет в Тамбов
TTITLE11=Мимуй Тролль/Утекай
TTITLE12=Апина Алёна/Электричка
TTITLE13=Иванов Александр/Боже, какой пустяк
TTITLE14=Лицей/Осень
TTITLE15=Пресняков В./Стюардесса по имени Жанна
TTITLE16=А-Студио/Джулия
TTITLE17=Любэ/Атас
EXTD=
EXTT0=
EXTT1=
EXTT2=
EXTT3=
EXTT4=
EXTT5=
EXTT6=
EXTT7=
EXTT8=
EXTT9=
EXTT10=
EXTT11=
EXTT12=
EXTT13=
EXTT14=
EXTT15=
EXTT16=
EXTT17=
PLAYORDER=
